<mxfile host="app.diagrams.net" modified="2024-10-02T06:48:31.979Z" agent="Mozilla/5.0 (Windows NT 10.0; Win64; x64) AppleWebKit/537.36 (KHTML, like Gecko) Chrome/129.0.0.0 Safari/537.36" version="22.1.16" etag="NVjAmC1ov7M74IfOc-XL" type="github">
  <diagram name="Trang-1" id="eIFFP-0tdSA92Vm9CdN5">
    <mxGraphModel>
      <root>
        <mxCell id="0" />
        <mxCell id="1" parent="0" />
      </root>
    </mxGraphModel>
  </diagram>
</mxfile>
